<svg width="24" height="24" viewBox="0 0 24 24" fill="none" xmlns="http://www.w3.org/2000/svg">
<path d="M20.0002 10.999H22.0002C22.0002 5.869 18.1272 2 12.9902 2V4C17.0522 4 20.0002 6.943 20.0002 10.999Z" fill="white"/>
<path d="M13.0003 7.99829C15.1033 7.99829 16.0003 8.89529 16.0003 10.9983H18.0003C18.0003 7.77329 16.2253 5.99829 13.0003 5.99829V7.99829ZM16.4223 13.4413C16.2301 13.2666 15.9776 13.1735 15.7181 13.1815C15.4585 13.1895 15.2123 13.2981 15.0313 13.4843L12.6383 15.9453C12.0623 15.8353 10.9043 15.4743 9.71228 14.2853C8.52028 13.0923 8.15928 11.9313 8.05228 11.3593L10.5113 8.96529C10.6977 8.78441 10.8064 8.53811 10.8144 8.27849C10.8225 8.01888 10.7292 7.76633 10.5543 7.57429L6.85928 3.51129C6.68432 3.31864 6.44116 3.20179 6.18143 3.18555C5.92171 3.1693 5.66588 3.25494 5.46828 3.42429L3.29828 5.28529C3.12539 5.4588 3.0222 5.68974 3.00828 5.93429C2.99328 6.18429 2.70728 12.1063 7.29928 16.7003C11.3053 20.7053 16.3233 20.9983 17.7053 20.9983C17.9073 20.9983 18.0313 20.9923 18.0643 20.9903C18.3088 20.9766 18.5396 20.8729 18.7123 20.6993L20.5723 18.5283C20.7417 18.3308 20.8276 18.0751 20.8115 17.8153C20.7954 17.5556 20.6788 17.3124 20.4863 17.1373L16.4223 13.4413Z" fill="white"/>
</svg>
