<svg width="121" height="30" viewBox="0 0 121 30" fill="none" xmlns="http://www.w3.org/2000/svg">
<g clip-path="url(#clip0_950_9453)">
<path d="M25.6497 17.9884C27.2994 11.0021 22.9732 4.00133 15.987 2.35165C9.00075 0.701976 1.99996 5.02812 0.350281 12.0144C-1.29939 19.0006 3.02675 26.0014 10.013 27.6511C16.9992 29.3007 24 24.9746 25.6497 17.9884Z" fill="#5F259F"/>
<path d="M18.8987 11.6065C18.8987 11.0983 18.4632 10.6623 17.955 10.6623H16.212L12.2187 6.08772C11.8554 5.65216 11.2746 5.50683 10.6937 5.65216L9.31399 6.08772C9.09604 6.16033 9.02337 6.451 9.16865 6.59588L13.5257 10.735H6.91798C6.69997 10.735 6.55469 10.8802 6.55469 11.0983V11.824C6.55469 12.3326 6.99064 12.7681 7.49881 12.7681H8.5152V16.2537C8.5152 18.8677 9.89493 20.3923 12.2187 20.3923C12.9445 20.3923 13.5258 20.3197 14.2515 20.0295V22.3528C14.2515 23.0064 14.7601 23.515 15.4136 23.515H16.43C16.648 23.515 16.8656 23.297 16.8656 23.079V12.6955H18.5359C18.7539 12.6955 18.8987 12.5502 18.8987 12.3326V11.6065H18.8987ZM14.2515 17.8509C13.816 18.0688 13.2351 18.1415 12.7996 18.1415C11.6374 18.1415 11.0566 17.5607 11.0566 16.2537V12.7681H14.2515V17.8509Z" fill="white"/>
</g>
<g filter="url(#filter0_d_950_9453)">
<circle cx="44" cy="15" r="13" fill="#888888"/>
</g>
<path d="M39.7408 12.7735C39.565 12.9762 39.2837 13.1361 39.0024 13.1132C38.9673 12.8392 39.105 12.548 39.2661 12.3682C39.4419 12.1598 39.7496 12.0114 39.9986 12C40.0279 12.2854 39.9137 12.5652 39.7408 12.7735ZM39.9957 13.1675C39.5884 13.1446 39.2397 13.393 39.0464 13.393C38.8501 13.393 38.5541 13.1789 38.2318 13.1846C37.8128 13.1903 37.4231 13.4215 37.2092 13.7897C36.7697 14.5262 37.095 15.6166 37.5198 16.216C37.7279 16.5128 37.9769 16.8382 38.3051 16.8268C38.6157 16.8154 38.7387 16.6299 39.1138 16.6299C39.4917 16.6299 39.6001 16.8268 39.9283 16.8211C40.2682 16.8154 40.4821 16.5243 40.6901 16.2274C40.9274 15.8906 41.0241 15.5623 41.03 15.5452C41.0241 15.5395 40.3737 15.2969 40.3678 14.5661C40.3619 13.9553 40.8806 13.6641 40.904 13.647C40.611 13.2245 40.1539 13.1789 39.9957 13.1675ZM42.3485 12.3397V16.7897H43.0576V15.2683H44.0391C44.9357 15.2683 45.5657 14.6689 45.5657 13.8011C45.5657 12.9334 44.9474 12.3397 44.0626 12.3397H42.3485ZM43.0576 12.922H43.875C44.4904 12.922 44.842 13.2417 44.842 13.804C44.842 14.3663 44.4904 14.6889 43.8721 14.6889H43.0576V12.922ZM46.8607 16.824C47.3061 16.824 47.7192 16.6042 47.9068 16.2559H47.9214V16.7897H48.5777V14.5747C48.5777 13.9324 48.0503 13.5186 47.2387 13.5186C46.4857 13.5186 45.929 13.9382 45.9085 14.5147H46.5472C46.6 14.2407 46.8607 14.0609 47.2182 14.0609C47.6518 14.0609 47.895 14.2578 47.895 14.6204V14.8658L47.0102 14.9172C46.1868 14.9657 45.7415 15.294 45.7415 15.8649C45.7415 16.4415 46.2015 16.824 46.8607 16.824ZM47.0512 16.2959C46.6732 16.2959 46.433 16.1189 46.433 15.8478C46.433 15.568 46.6644 15.4053 47.1069 15.3796L47.895 15.3311V15.5823C47.895 15.999 47.5317 16.2959 47.0512 16.2959ZM49.4538 18C50.1453 18 50.4705 17.7431 50.7547 16.9638L52 13.5614H51.2792L50.4442 16.1903H50.4295L49.5945 13.5614H48.8532L50.0545 16.8011L49.99 16.9981C49.8816 17.3321 49.7058 17.4605 49.3923 17.4605C49.3366 17.4605 49.2282 17.4548 49.1842 17.4491V17.9829C49.2253 17.9943 49.4011 18 49.4538 18Z" fill="white"/>
<g filter="url(#filter1_d_950_9453)">
<circle cx="75" cy="15" r="13" fill="#333333"/>
</g>
<path fill-rule="evenodd" clip-rule="evenodd" d="M77.2022 17.4241C76.1467 18.2237 74.6353 18.6485 73.3399 18.6485C71.5167 18.6485 69.8614 17.9488 68.614 16.7744C68.518 16.6744 68.614 16.5495 68.7099 16.6244C70.0533 17.4491 71.7326 17.9239 73.4358 17.9239C74.5873 17.9239 75.8828 17.674 77.0582 17.1492C77.2262 17.0992 77.3701 17.2991 77.2022 17.4241Z" fill="#FF9201"/>
<path fill-rule="evenodd" clip-rule="evenodd" d="M77.6347 16.8975C77.4908 16.7226 76.7471 16.8226 76.4112 16.8476C76.3153 16.8725 76.2913 16.7726 76.3873 16.6976C76.987 16.2478 77.9706 16.3978 78.0905 16.5227C78.2105 16.6726 78.0665 17.6972 77.4908 18.197C77.3948 18.2719 77.3228 18.222 77.3708 18.122C77.4668 17.8221 77.7547 17.0974 77.6347 16.8975Z" fill="#FF9201"/>
<path fill-rule="evenodd" clip-rule="evenodd" d="M76.435 13.6263V13.2015C76.435 13.1266 76.4829 13.1016 76.5309 13.1016H78.3541C78.4021 13.1016 78.4501 13.1515 78.4501 13.2015V13.5764C78.4501 13.6263 78.4021 13.7263 78.3061 13.8512L77.3466 15.2756C77.7064 15.2756 78.0662 15.3256 78.4021 15.5005C78.4741 15.5505 78.498 15.6005 78.498 15.6754V16.1252C78.498 16.1752 78.4261 16.2502 78.3541 16.2252C77.7784 15.9253 77.0347 15.8753 76.411 16.2252C76.339 16.2502 76.291 16.2002 76.291 16.1252V15.6754C76.291 15.6005 76.291 15.5005 76.363 15.3756L77.4665 13.7263H76.5069C76.4829 13.7263 76.435 13.6763 76.435 13.6263Z" fill="white"/>
<path fill-rule="evenodd" clip-rule="evenodd" d="M69.7415 16.2744H69.1897C69.1417 16.2744 69.0938 16.2244 69.0938 16.1744V13.2007C69.0938 13.1507 69.1417 13.1008 69.1897 13.1008H69.7175C69.7655 13.1008 69.8134 13.1507 69.8134 13.2007V13.6005C69.9574 13.2257 70.1973 13.0508 70.5571 13.0508C70.917 13.0508 71.1329 13.2257 71.2768 13.6005C71.4207 13.2257 71.7086 13.0508 72.0445 13.0508C72.2844 13.0508 72.5242 13.1507 72.6922 13.3756C72.8601 13.6255 72.8361 14.0004 72.8361 14.3002V16.1744C72.8361 16.2244 72.7881 16.2744 72.7401 16.2744H72.1884C72.1404 16.2744 72.0924 16.2244 72.0924 16.1744V14.6001C72.0924 14.4752 72.0924 14.1503 72.0684 14.0503C72.0205 13.8504 71.9005 13.8005 71.7326 13.8005C71.5886 13.8005 71.4447 13.9004 71.3967 14.0503C71.3488 14.2003 71.3488 14.4502 71.3488 14.6251V16.1994C71.3488 16.2494 71.3008 16.2993 71.2528 16.2993H70.701C70.6531 16.2993 70.6051 16.2494 70.6051 16.1994V14.6251C70.6051 14.3002 70.6531 13.8005 70.2692 13.8005C69.8614 13.8005 69.8854 14.2752 69.8854 14.6251V16.1994C69.8374 16.2244 69.7894 16.2744 69.7415 16.2744Z" fill="white"/>
<path fill-rule="evenodd" clip-rule="evenodd" d="M80.0569 13.0234C80.8966 13.0234 81.3284 13.7731 81.3284 14.6977C81.3284 15.5973 80.8246 16.322 80.0569 16.322C79.2413 16.322 78.8095 15.5723 78.8095 14.6477C78.7855 13.7481 79.2413 13.0234 80.0569 13.0234ZM80.0569 13.6482C79.6491 13.6482 79.6251 14.2229 79.6251 14.5977C79.6251 14.9726 79.6251 15.7472 80.0569 15.7472C80.4888 15.7472 80.5128 15.1225 80.5128 14.7477C80.5128 14.4978 80.5128 14.1979 80.4408 13.948C80.3688 13.7231 80.2249 13.6482 80.0569 13.6482Z" fill="white"/>
<path fill-rule="evenodd" clip-rule="evenodd" d="M82.4094 16.272H81.8577C81.8097 16.272 81.7617 16.222 81.7617 16.172V13.1984C81.7617 13.1484 81.8097 13.0984 81.8577 13.0984H82.3854C82.4334 13.0984 82.4814 13.1234 82.4814 13.1734V13.6232C82.6493 13.2234 82.8652 13.0234 83.2491 13.0234C83.4889 13.0234 83.7528 13.1234 83.8968 13.3733C84.0407 13.6232 84.0407 14.023 84.0407 14.2979V16.172C84.0407 16.222 83.9927 16.272 83.9447 16.272H83.393C83.345 16.272 83.297 16.222 83.297 16.172V14.5478C83.297 14.2229 83.345 13.7481 82.9372 13.7481C82.7933 13.7481 82.6733 13.8481 82.6253 13.998C82.5534 14.1729 82.5294 14.3728 82.5294 14.5728V16.172C82.5054 16.222 82.4574 16.272 82.4094 16.272Z" fill="white"/>
<path fill-rule="evenodd" clip-rule="evenodd" d="M74.9711 14.8492C74.9711 15.0741 74.9711 15.274 74.8752 15.4739C74.7792 15.6488 74.6353 15.7488 74.4913 15.7488C74.2754 15.7488 74.1555 15.5739 74.1555 15.324C74.1555 14.8242 74.5873 14.7492 74.9951 14.7492V14.8492H74.9711ZM75.5229 16.2736C75.4749 16.2985 75.4269 16.2985 75.4029 16.2985C75.211 16.1486 75.187 16.0736 75.0911 15.8987C74.7792 16.2236 74.5633 16.3235 74.1795 16.3235C73.6997 16.3235 73.3398 16.0237 73.3398 15.4239C73.3398 14.9491 73.5797 14.6243 73.9396 14.4743C74.2514 14.3244 74.6593 14.2994 74.9951 14.2744V14.1995C74.9951 14.0495 74.9951 13.8996 74.9232 13.7747C74.8512 13.6747 74.7312 13.6247 74.6113 13.6247C74.3954 13.6247 74.2035 13.7497 74.1555 13.9746C74.1555 14.0245 74.1075 14.0745 74.0595 14.0745L73.5078 14.0245C73.4598 14.0245 73.4118 13.9746 73.4358 13.8996C73.5558 13.2249 74.1555 13 74.6833 13C74.9471 13 75.307 13.075 75.5229 13.2999C75.7868 13.5747 75.7628 13.9246 75.7628 14.2994V15.199C75.7628 15.4739 75.8827 15.5989 75.9787 15.7488C76.0027 15.7988 76.0267 15.8737 75.9787 15.8987C75.8347 15.9987 75.6428 16.1736 75.5229 16.2736Z" fill="white"/>
<path fill-rule="evenodd" clip-rule="evenodd" d="M67.6553 14.8492C67.6553 15.0741 67.6553 15.274 67.5593 15.4739C67.4634 15.6488 67.3194 15.7488 67.1755 15.7488C66.9596 15.7488 66.8396 15.5739 66.8396 15.324C66.8396 14.8242 67.2714 14.7492 67.6793 14.7492V14.8492H67.6553ZM68.207 16.2736C68.159 16.2985 68.1111 16.2985 68.0631 16.2985C67.8712 16.1486 67.8472 16.0736 67.7512 15.8987C67.4394 16.2236 67.2235 16.3235 66.8396 16.3235C66.3598 16.3235 66 16.0237 66 15.4239C66 14.9491 66.2399 14.6243 66.5997 14.4743C66.9116 14.3244 67.3194 14.2994 67.6553 14.2744V14.1995C67.6553 14.0495 67.6553 13.8996 67.5833 13.7747C67.5113 13.6747 67.3914 13.6247 67.2714 13.6247C67.0555 13.6247 66.8636 13.7497 66.8156 13.9746C66.8156 14.0245 66.7677 14.0745 66.7197 14.0745L66.1679 14.0245C66.1199 14.0245 66.072 13.9746 66.096 13.8996C66.2159 13.2249 66.8156 13 67.3434 13C67.6073 13 67.9671 13.075 68.183 13.2999C68.4469 13.5747 68.4229 13.9246 68.4229 14.2994V15.199C68.4229 15.4739 68.5429 15.5989 68.6388 15.7488C68.6628 15.7988 68.6868 15.8737 68.6388 15.8987C68.5189 15.9987 68.327 16.1736 68.207 16.2736Z" fill="white"/>
<g filter="url(#filter2_d_950_9453)">
<circle cx="106" cy="15" r="13" fill="white"/>
</g>
<g clip-path="url(#clip1_950_9453)">
<path d="M105.568 14.9289V16.7907H104.977V12.1917H106.544C106.922 12.1837 107.287 12.3271 107.558 12.5898C107.833 12.8371 107.988 13.191 107.982 13.5603C107.99 13.9323 107.835 14.2888 107.558 14.5368C107.284 14.7982 106.946 14.9289 106.544 14.9282L105.568 14.9289ZM105.568 12.7581V14.3639H106.558C106.778 14.3706 106.99 14.2841 107.143 14.126C107.453 13.8244 107.46 13.3277 107.158 13.0174C107.153 13.0121 107.148 13.0067 107.143 13.002C106.992 12.8405 106.779 12.752 106.558 12.7581H105.568ZM109.344 13.5415C109.781 13.5415 110.125 13.6582 110.378 13.8914C110.63 14.1246 110.756 14.445 110.756 14.8511V16.7907H110.191V16.3538H110.166C109.921 16.7137 109.596 16.8933 109.19 16.8933C108.843 16.8933 108.553 16.7907 108.32 16.585C108.093 16.394 107.964 16.1111 107.97 15.8142C107.97 15.4885 108.093 15.2298 108.339 15.0375C108.585 14.8451 108.913 14.7486 109.325 14.7486C109.675 14.7486 109.965 14.8129 110.191 14.9409V14.8056C110.193 14.6032 110.103 14.4115 109.948 14.2828C109.791 14.142 109.588 14.065 109.377 14.0677C109.047 14.0677 108.786 14.2071 108.594 14.4852L108.074 14.1575C108.359 13.7466 108.783 13.5415 109.344 13.5415ZM108.579 15.8276C108.578 15.9804 108.651 16.1239 108.775 16.213C108.905 16.3155 109.068 16.3705 109.234 16.3672C109.483 16.3665 109.722 16.2673 109.899 16.091C110.094 15.9067 110.192 15.6909 110.192 15.4423C110.008 15.2955 109.751 15.2218 109.421 15.2218C109.181 15.2218 108.981 15.2794 108.821 15.3953C108.659 15.5133 108.579 15.6561 108.579 15.8276ZM114 13.6441L112.028 18.1781H111.418L112.15 16.5917L110.852 13.6441H111.494L112.432 15.9047H112.445L113.357 13.6441H114Z" fill="#5F6368"/>
<path d="M103.18 14.5258C103.18 14.3455 103.165 14.1659 103.134 13.9883H100.643V15.0057H102.069C102.01 15.3341 101.82 15.6243 101.542 15.8086V16.4694H102.394C102.892 16.0103 103.18 15.33 103.18 14.5258Z" fill="#4285F4"/>
<path d="M100.642 17.1093C101.355 17.1093 101.955 16.8754 102.393 16.4713L101.541 15.8104C101.304 15.9713 100.999 16.0631 100.642 16.0631C99.9528 16.0631 99.3677 15.5986 99.1586 14.9727H98.2812V15.6536C98.7296 16.5463 99.6431 17.1093 100.642 17.1093Z" fill="#34A853"/>
<path d="M99.1588 14.9696C99.0482 14.6419 99.0482 14.286 99.1588 13.9583V13.2773H98.2815C97.9062 14.024 97.9062 14.904 98.2815 15.6506L99.1588 14.9696Z" fill="#FBBC04"/>
<path d="M100.642 12.8706C101.018 12.8646 101.382 13.0066 101.655 13.2667L102.41 12.5127C101.931 12.0636 101.298 11.817 100.642 11.8244C99.6431 11.8244 98.7296 12.388 98.2812 13.2801L99.1586 13.961C99.3677 13.335 99.9528 12.8706 100.642 12.8706Z" fill="#EA4335"/>
</g>
<defs>
<filter id="filter0_d_950_9453" x="29" y="0" width="30" height="30" filterUnits="userSpaceOnUse" color-interpolation-filters="sRGB">
<feFlood flood-opacity="0" result="BackgroundImageFix"/>
<feColorMatrix in="SourceAlpha" type="matrix" values="0 0 0 0 0 0 0 0 0 0 0 0 0 0 0 0 0 0 127 0" result="hardAlpha"/>
<feOffset/>
<feGaussianBlur stdDeviation="1"/>
<feComposite in2="hardAlpha" operator="out"/>
<feColorMatrix type="matrix" values="0 0 0 0 0 0 0 0 0 0 0 0 0 0 0 0 0 0 0.25 0"/>
<feBlend mode="normal" in2="BackgroundImageFix" result="effect1_dropShadow_950_9453"/>
<feBlend mode="normal" in="SourceGraphic" in2="effect1_dropShadow_950_9453" result="shape"/>
</filter>
<filter id="filter1_d_950_9453" x="60" y="0" width="30" height="30" filterUnits="userSpaceOnUse" color-interpolation-filters="sRGB">
<feFlood flood-opacity="0" result="BackgroundImageFix"/>
<feColorMatrix in="SourceAlpha" type="matrix" values="0 0 0 0 0 0 0 0 0 0 0 0 0 0 0 0 0 0 127 0" result="hardAlpha"/>
<feOffset/>
<feGaussianBlur stdDeviation="1"/>
<feComposite in2="hardAlpha" operator="out"/>
<feColorMatrix type="matrix" values="0 0 0 0 0 0 0 0 0 0 0 0 0 0 0 0 0 0 0.25 0"/>
<feBlend mode="normal" in2="BackgroundImageFix" result="effect1_dropShadow_950_9453"/>
<feBlend mode="normal" in="SourceGraphic" in2="effect1_dropShadow_950_9453" result="shape"/>
</filter>
<filter id="filter2_d_950_9453" x="91" y="0" width="30" height="30" filterUnits="userSpaceOnUse" color-interpolation-filters="sRGB">
<feFlood flood-opacity="0" result="BackgroundImageFix"/>
<feColorMatrix in="SourceAlpha" type="matrix" values="0 0 0 0 0 0 0 0 0 0 0 0 0 0 0 0 0 0 127 0" result="hardAlpha"/>
<feOffset/>
<feGaussianBlur stdDeviation="1"/>
<feComposite in2="hardAlpha" operator="out"/>
<feColorMatrix type="matrix" values="0 0 0 0 0 0 0 0 0 0 0 0 0 0 0 0 0 0 0.25 0"/>
<feBlend mode="normal" in2="BackgroundImageFix" result="effect1_dropShadow_950_9453"/>
<feBlend mode="normal" in="SourceGraphic" in2="effect1_dropShadow_950_9453" result="shape"/>
</filter>
<clipPath id="clip0_950_9453">
<rect width="26" height="26" fill="white" transform="translate(0 2)"/>
</clipPath>
<clipPath id="clip1_950_9453">
<rect width="16" height="16" fill="white" transform="translate(98 7)"/>
</clipPath>
</defs>
</svg>
