<svg width="15" height="19" viewBox="0 0 15 19" fill="none" xmlns="http://www.w3.org/2000/svg">
<path d="M12.3991 4.74219H2.25641C1.73103 4.74219 1.22571 4.96399 0.870064 5.35073C0.514422 5.73744 0.335681 6.25953 0.379584 6.78308L1.25832 17.2586C1.2979 17.7305 1.51167 18.1669 1.86025 18.4875C2.2088 18.8081 2.6616 18.9846 3.13511 18.9846H11.5204C11.994 18.9846 12.4467 18.8081 12.7953 18.4875C13.1439 18.167 13.3577 17.7305 13.3972 17.2586L14.2759 6.78305C14.3198 6.25953 14.1411 5.73744 13.7855 5.35073C13.4299 4.96399 12.9245 4.74219 12.3991 4.74219ZM12.8989 6.66753L12.0202 17.1431C11.9984 17.4029 11.7811 17.6027 11.5204 17.6027H3.13515C2.87441 17.6027 2.65718 17.4029 2.63541 17.1431L1.75667 6.66753C1.73212 6.37505 1.9629 6.12411 2.25641 6.12411H12.3991C12.6927 6.12411 12.9234 6.37505 12.8989 6.66753Z" fill="#262626"/>
<path d="M11.521 19.0013H3.13564C2.658 19.0013 2.20139 18.8232 1.84985 18.4999C1.49827 18.1766 1.28266 17.7364 1.24275 17.2605L0.364018 6.78497C0.319728 6.25691 0.500017 5.73036 0.858692 5.34033C1.21737 4.95027 1.72701 4.72656 2.25691 4.72656H12.3996C12.9296 4.72656 13.4392 4.95027 13.7979 5.34033C14.1565 5.73033 14.3368 6.25687 14.2925 6.7849L13.4138 17.2604C13.3739 17.7364 13.1583 18.1766 12.8068 18.4999C12.4552 18.8232 11.9985 19.0013 11.521 19.0013ZM2.25694 4.75885C1.73604 4.75885 1.23504 4.97875 0.882466 5.3622C0.529888 5.74559 0.352631 6.2632 0.396179 6.78229L1.27491 17.2578C1.31414 17.7257 1.52611 18.1584 1.87168 18.4762C2.21723 18.794 2.66613 18.969 3.13564 18.969H11.521C11.9905 18.969 12.4393 18.794 12.7849 18.4762C13.1306 18.1584 13.3425 17.7257 13.3817 17.2578L14.2604 6.78226C14.304 6.2632 14.1267 5.74559 13.7742 5.36224C13.4216 4.97882 12.9206 4.75888 12.3997 4.75888H2.25694V4.75885ZM11.521 17.6193H3.13568C2.86874 17.6193 2.64216 17.411 2.61987 17.145L1.74114 6.66942C1.72907 6.52552 1.7782 6.38203 1.87594 6.27578C1.97368 6.16949 2.11255 6.10852 2.25694 6.10852H12.3997C12.5441 6.10852 12.6829 6.16946 12.7807 6.27575C12.8784 6.382 12.9276 6.52552 12.9155 6.66942L12.0368 17.145C12.0145 17.411 11.7879 17.6193 11.521 17.6193ZM2.25694 6.14078C2.12155 6.14078 1.99133 6.19794 1.89968 6.29758C1.80804 6.39723 1.76198 6.53178 1.7733 6.66668L2.65203 17.1423C2.67294 17.3917 2.88539 17.5871 3.13571 17.5871H11.521C11.7713 17.5871 11.9838 17.3917 12.0047 17.1423L12.8834 6.66668C12.8947 6.53174 12.8486 6.3972 12.7569 6.29755C12.6653 6.19791 12.5351 6.14078 12.3997 6.14078H2.25694Z" fill="#262626"/>
<path d="M0.706588 3.99415H13.9459C14.3275 3.99415 14.6368 3.68479 14.6368 3.30318C14.6368 2.92157 14.3275 2.61222 13.9459 2.61222H11.4362V2.58106V1.89903C11.4362 0.860522 10.5914 0.015625 9.55285 0.015625H5.09965C4.06115 0.015625 3.21625 0.860522 3.21625 1.89903V2.58106V2.61222H0.706588C0.324978 2.61222 0.015625 2.92157 0.015625 3.30318C0.015625 3.68479 0.324978 3.99415 0.706588 3.99415ZM4.59814 1.89903C4.59814 1.62207 4.82266 1.39755 5.09962 1.39755H9.55285C9.82975 1.39755 10.0543 1.62207 10.0543 1.89903V2.58106H4.59814V1.89903Z" fill="#262626"/>
<path d="M13.9464 4.01078H0.707092C0.317191 4.01078 0 3.69359 0 3.30369C0 2.91382 0.317191 2.59659 0.707092 2.59659H3.20059V1.89954C3.20059 0.852155 4.05271 0 5.10016 0H9.55338C10.6008 0 11.4529 0.852155 11.4529 1.89954V2.59659H13.9464C14.3363 2.59659 14.6535 2.91379 14.6535 3.30369C14.6534 3.69359 14.3363 4.01078 13.9464 4.01078ZM0.707092 2.62885C0.334998 2.62885 0.0322578 2.93159 0.0322578 3.30369C0.0322578 3.67581 0.334998 3.97852 0.707092 3.97852H13.9464C14.3184 3.97852 14.6212 3.67578 14.6212 3.30369C14.6212 2.93159 14.3184 2.62885 13.9464 2.62885H11.4206V1.89954C11.4206 0.869929 10.583 0.0322578 9.55335 0.0322578H5.10016C4.07055 0.0322578 3.23288 0.869929 3.23288 1.89954V2.62885H0.707092ZM10.0709 2.59766H4.58252V1.89954C4.58252 1.61412 4.81471 1.38193 5.10013 1.38193H9.55335C9.83877 1.38193 10.0709 1.61412 10.0709 1.89954V2.59766ZM4.61477 2.5654H10.0387V1.89954C10.0387 1.63192 9.82096 1.41418 9.55335 1.41418H5.10016C4.83251 1.41418 4.61481 1.63192 4.61481 1.89954V2.5654H4.61477Z" fill="#262626"/>
<path d="M4.88824 8.78214C4.86308 8.40134 4.53373 8.11314 4.15324 8.13824C3.77244 8.1634 3.48415 8.4925 3.50935 8.87327L3.91057 14.9441C3.9347 15.3094 4.2385 15.5895 4.59934 15.5895C4.61466 15.5895 4.63008 15.589 4.6456 15.588C5.02637 15.5629 5.31466 15.2338 5.28949 14.853L4.88824 8.78214Z" fill="#262626"/>
<path d="M4.5979 15.6062C4.22713 15.6062 3.91752 15.3161 3.89303 14.9457L3.49181 8.87483C3.47936 8.68635 3.54104 8.50435 3.66549 8.36226C3.78994 8.22016 3.96229 8.1351 4.15074 8.12261C4.54232 8.09713 4.87738 8.39558 4.9029 8.78154L5.30412 14.8524C5.32983 15.2415 5.03425 15.5789 4.64519 15.6046C4.62935 15.6057 4.61358 15.6062 4.5979 15.6062ZM4.19793 8.15332C4.183 8.15332 4.168 8.15384 4.1529 8.15481C3.97303 8.16671 3.80858 8.2479 3.68978 8.38348C3.571 8.51909 3.51213 8.6928 3.52404 8.87267L3.92526 14.9435C3.94958 15.312 4.27013 15.5966 4.64312 15.5724C5.01441 15.5479 5.29651 15.2258 5.27199 14.8545L4.87077 8.78367C4.84741 8.43022 4.55187 8.15332 4.19793 8.15332Z" fill="#262626"/>
<path d="M7.32573 8.13672C6.94412 8.13672 6.63477 8.44607 6.63477 8.82768V14.8985C6.63477 15.2802 6.94412 15.5895 7.32573 15.5895C7.70737 15.5895 8.01669 15.2802 8.01669 14.8985V8.82768C8.01672 8.44607 7.70737 8.13672 7.32573 8.13672Z" fill="#262626"/>
<path d="M7.32623 15.6061C6.93633 15.6061 6.61914 15.2889 6.61914 14.899V8.82819C6.61914 8.43829 6.93633 8.12109 7.32623 8.12109C7.71613 8.12109 8.03332 8.43829 8.03332 8.82819V14.899C8.03336 15.2889 7.71617 15.6061 7.32623 15.6061ZM7.32623 8.15335C6.95414 8.15335 6.6514 8.45609 6.6514 8.82819V14.899C6.6514 15.2711 6.95414 15.5739 7.32623 15.5739C7.69836 15.5739 8.00107 15.2711 8.00107 14.899V8.82819C8.0011 8.45606 7.69836 8.15335 7.32623 8.15335Z" fill="#262626"/>
<path d="M10.501 8.13824C10.1205 8.11314 9.79116 8.40134 9.76603 8.78214L9.36481 14.853C9.33968 15.2338 9.6279 15.5629 10.0087 15.5881C10.0243 15.5891 10.0396 15.5896 10.055 15.5896C10.4158 15.5896 10.7196 15.3094 10.7438 14.9442L11.145 8.8733C11.1701 8.4925 10.8818 8.1634 10.501 8.13824Z" fill="#262626"/>
<path d="M10.0555 15.6062C10.0398 15.6062 10.0241 15.6056 10.0082 15.6046C9.61911 15.5789 9.32353 15.2415 9.34921 14.8524L9.75043 8.78156C9.77592 8.3956 10.1113 8.09698 10.5026 8.12263C10.6911 8.13508 10.8634 8.22018 10.9878 8.36224C11.1123 8.5043 11.174 8.68634 11.1615 8.87482L10.7604 14.9457C10.7358 15.316 10.4262 15.6062 10.0555 15.6062ZM10.4554 8.15331C10.1015 8.15331 9.80595 8.43018 9.78263 8.78366L9.3814 14.8546C9.35689 15.2258 9.63898 15.5479 10.0103 15.5724C10.3846 15.5966 10.7038 15.312 10.7282 14.9436L11.1293 8.87269C11.1412 8.69282 11.0824 8.51911 10.9636 8.3835C10.8448 8.24789 10.6803 8.16669 10.5005 8.15482C10.4854 8.15382 10.4703 8.15331 10.4554 8.15331Z" fill="#262626"/>
</svg>
